<svg width="256" height="250" viewBox="0 0 256 250" fill="none" xmlns="http://www.w3.org/2000/svg">
<path d="M83.2426 203.607C83.2435 203.607 83.2445 203.606 83.2455 203.606L83.2687 205.008C84.4138 204.953 85.5313 204.833 86.6099 204.666L83.2426 203.607ZM83.2426 203.607C83.2416 203.607 83.2407 203.607 83.2397 203.607L83.267 205.008M83.2426 203.607L83.267 205.008M83.267 205.008C82.1044 205.064 80.9134 205.053 79.706 204.958C79.855 204.815 80.0118 204.686 80.172 204.571L83.267 205.008ZM59.9916 216.425C66.5516 221.341 77.2447 225.055 94.1204 221.914C94.1503 226.869 94.191 231.569 94.2239 235.368C94.256 239.068 94.2806 241.912 94.2806 243.303C94.2806 244.575 93.8347 245.818 92.9589 246.617C92.1564 247.349 90.6905 247.982 88.0309 247.518C38.0353 230.816 2 183.618 2 128.001C2 58.4114 58.4217 2 128.001 2C197.587 2 254 58.4113 254 128.001C254 183.603 218.007 230.786 168.035 247.504C165.319 248.003 163.851 247.369 163.059 246.645C162.191 245.853 161.747 244.604 161.747 243.303C161.747 241.912 161.763 239.474 161.785 236.207C161.796 234.542 161.809 232.661 161.821 230.594C161.858 224.478 161.895 216.746 161.895 208.177C161.895 198.181 159.128 190.785 155.369 185.973C168.516 184.167 181.945 180.434 192.409 171.676C204.018 161.959 211.66 146.335 211.66 121.316C211.66 107.297 206.827 95.7095 198.79 86.5329C200.507 81.7165 203.661 68.9732 197.092 52.3493L196.744 51.4688L195.842 51.1798L195.232 53.0844C195.842 51.1798 195.84 51.1792 195.838 51.1785L195.834 51.1772L195.825 51.1743L195.804 51.1678C195.788 51.163 195.77 51.1576 195.749 51.1517C195.707 51.1397 195.654 51.1254 195.591 51.1095C195.464 51.0777 195.293 51.0396 195.079 51.0008C194.65 50.9233 194.047 50.8436 193.265 50.8077C191.699 50.7358 189.424 50.8394 186.398 51.4774C180.476 52.7265 171.694 56.0195 159.71 64.0344C149.554 61.3095 138.737 59.9459 128.01 59.8979L128.001 59.8978L127.992 59.8979C117.265 59.9459 106.457 61.3093 96.3188 64.0343C84.3193 56.0191 75.5267 52.7262 69.5974 51.4773C66.5685 50.8393 64.2912 50.7358 62.7233 50.8077C61.94 50.8436 61.3364 50.9232 60.9073 51.0007C60.6929 51.0395 60.5225 51.0776 60.3953 51.1094C60.3317 51.1252 60.279 51.1395 60.2371 51.1515C60.2161 51.1574 60.1978 51.1628 60.1823 51.1675L60.1609 51.1741L60.1517 51.177L60.1475 51.1783C60.1455 51.1789 60.1436 51.1795 60.7532 53.0844L60.1436 51.1795L59.2404 51.4686L58.8926 52.3509C52.339 68.9756 55.4935 81.7191 57.2102 86.5343C49.1919 95.7076 44.3248 107.294 44.3248 121.316C44.3248 146.277 51.9526 161.907 63.5343 171.654C73.9817 180.447 87.3915 184.228 100.517 186.068C97.8587 189.5 95.7103 194.242 94.7059 200.293C91.101 201.787 85.5184 203.471 79.6116 202.943C73.273 202.376 66.3765 199.257 61.004 190.058L60.9874 190.028C60.9791 190.014 60.9694 189.997 60.9582 189.977C60.9457 189.955 60.9313 189.931 60.9151 189.903C60.8535 189.797 60.7649 189.649 60.6495 189.463C60.4189 189.093 60.0803 188.573 59.6349 187.951C58.7458 186.71 57.4207 185.049 55.6658 183.354C52.1698 179.979 46.8453 176.36 39.786 175.864L39.729 175.86L39.672 175.859L39.6458 177.859C39.672 175.859 39.6713 175.859 39.6706 175.859L39.6689 175.859L39.6648 175.859L39.653 175.859L39.6161 175.859C39.5857 175.859 39.5438 175.859 39.4916 175.86C39.3874 175.86 39.2413 175.863 39.0626 175.869C38.707 175.881 38.2131 175.909 37.6572 175.97C36.6251 176.083 35.0761 176.342 33.8626 177.033C33.2343 177.391 32.5098 177.971 32.11 178.889C31.6833 179.869 31.768 180.904 32.1635 181.847C32.8712 183.534 34.7208 185.294 37.6412 187.291L37.7748 187.383L37.9097 187.446L37.9106 187.446L37.9119 187.447L37.9145 187.448L37.9175 187.45L37.9188 187.45C37.9254 187.454 37.9356 187.459 37.9493 187.466C37.9893 187.486 38.0591 187.523 38.1561 187.578C38.3501 187.688 38.6528 187.87 39.0434 188.137C39.8243 188.671 40.9577 189.546 42.2769 190.869C44.905 193.505 48.2979 197.944 51.1052 205.061C51.1098 205.074 51.1151 205.089 51.1211 205.106C51.142 205.164 51.1712 205.244 51.2094 205.343C51.2858 205.542 51.3982 205.818 51.552 206.159C51.8594 206.84 52.3332 207.782 53.0163 208.877C54.382 211.066 56.5929 213.878 59.9916 216.425ZM46.0389 182.021C46.027 181.883 46.0429 181.713 46.1106 181.539C46.1537 181.558 46.1966 181.578 46.2394 181.598C46.244 181.6 46.2486 181.602 46.2533 181.604C46.2568 181.606 46.2604 181.607 46.2639 181.609C46.2694 181.611 46.2748 181.614 46.2803 181.616C46.3202 181.635 46.36 181.654 46.3997 181.672C46.3048 181.855 46.1828 181.972 46.0742 182.047C46.071 182.049 46.0678 182.051 46.0646 182.053C46.0583 182.057 46.052 182.061 46.0458 182.065C46.0452 182.066 46.0446 182.066 46.044 182.066C46.0428 182.058 46.0416 182.048 46.0406 182.039C46.04 182.033 46.0394 182.027 46.0389 182.021ZM80.656 207.018C80.9852 206.216 82.021 205.627 83.2787 205.606C84.4504 205.583 85.4587 206.081 85.8608 206.79C85.028 206.893 84.175 206.968 83.306 207.008C83.3047 207.008 83.3033 207.008 83.302 207.008C82.4345 207.048 81.551 207.054 80.656 207.018ZM63.4684 200.758C63.4685 200.758 63.4686 200.76 63.4685 200.763C63.4683 200.76 63.4683 200.758 63.4684 200.758ZM92.9732 207.378C92.9734 207.378 92.9756 207.379 92.9793 207.382C92.9748 207.38 92.9729 207.378 92.9732 207.378Z" fill="#161614" stroke="white" stroke-width="4"/>
</svg>
