<svg width="256" height="250" viewBox="0 0 256 250" fill="none" xmlns="http://www.w3.org/2000/svg">
<path d="M95.1134 220.702C77.7823 224.201 67.0414 220.459 60.5913 215.625C57.3095 213.165 55.178 210.452 53.8647 208.348C53.208 207.295 52.7547 206.393 52.4635 205.747C52.3179 205.425 52.2126 205.166 52.1425 204.984C52.1075 204.893 52.0813 204.821 52.0632 204.77C52.0569 204.753 52.0516 204.737 52.0472 204.725L52.0433 204.714C49.1841 197.457 45.7114 192.897 42.985 190.163C41.619 188.793 40.437 187.879 39.6078 187.312C39.1932 187.028 38.8666 186.832 38.6492 186.708C38.5405 186.647 38.4591 186.604 38.4077 186.577C38.3819 186.564 38.3637 186.555 38.3533 186.55L38.3458 186.546L38.3449 186.545L38.3441 186.545L38.3436 186.545L38.3432 186.545L38.2726 186.512L38.2058 186.466C35.2939 184.474 33.6706 182.854 33.0856 181.46C32.7723 180.713 32.7312 179.967 33.0269 179.288C33.3092 178.64 33.8349 178.2 34.3578 177.902C35.3822 177.318 36.7558 177.075 37.7665 176.964C38.2918 176.906 38.76 176.88 39.0972 176.868C39.2663 176.863 39.4036 176.86 39.5 176.859C39.528 176.859 39.5525 176.859 39.5734 176.859C39.5886 176.859 39.6019 176.859 39.6132 176.859L39.6449 176.859L39.6542 176.859L39.6571 176.859L39.6581 176.859C39.6585 176.859 39.6589 176.859 39.6458 177.859L39.6589 176.859L39.6874 176.86L39.7159 176.862C46.459 177.335 51.5739 180.794 54.9712 184.074C56.6733 185.717 57.9597 187.33 58.822 188.533C59.2535 189.136 59.5801 189.638 59.8005 189.992C59.9107 190.169 59.9945 190.309 60.0517 190.407C60.0802 190.456 60.1022 190.494 60.1175 190.521L60.1311 190.546C60.1328 190.549 60.1345 190.552 60.1362 190.555M95.1134 220.702L71.0249 202.624C66.7944 200.554 62.7079 196.947 59.2674 191.05C60.1433 190.567 60.1431 190.567 60.1428 190.567L60.1422 190.566L60.1406 190.563L60.1362 190.555M95.1134 220.702C95.1436 226.088 95.1883 231.246 95.2238 235.353C95.2559 239.06 95.2806 241.911 95.2806 243.303C95.2806 244.784 94.7641 246.324 93.6328 247.355C92.5399 248.352 90.7156 249.018 87.784 248.49C37.3562 231.677 1 184.087 1 128.001C1 57.859 57.8695 1 128.001 1C198.139 1 255 57.859 255 128.001C255 184.07 218.688 231.643 168.286 248.474C165.303 249.038 163.472 248.377 162.384 247.384C161.257 246.355 160.747 244.805 160.747 243.303C160.747 241.909 160.763 239.465 160.785 236.193C160.796 234.529 160.809 232.651 160.821 230.588C160.858 224.473 160.895 216.743 160.895 208.177C160.895 197.329 157.579 189.72 153.418 185.22C167.071 183.518 181.037 179.89 191.767 170.909C203.096 161.427 210.66 146.116 210.66 121.316C210.66 107.322 205.764 95.8188 197.645 86.7483C199.227 82.5971 202.893 69.7504 196.162 52.7169L195.988 52.2766L195.537 52.1321L195.232 53.0844C195.537 52.1321 195.536 52.1318 195.535 52.1314L195.533 52.1307L195.527 52.129L195.514 52.1248C195.503 52.1217 195.49 52.1178 195.475 52.1133C195.443 52.1044 195.401 52.0929 195.348 52.0797C195.242 52.0532 195.093 52.0197 194.901 51.9849C194.516 51.9152 193.957 51.8406 193.219 51.8066C191.742 51.7388 189.552 51.8343 186.605 52.4559C180.774 53.6857 171.987 56.9728 159.889 65.1188C149.695 62.3388 138.808 60.9463 128.006 60.8978L127.997 60.8979C117.195 60.9463 106.316 62.3387 96.1406 65.1187C84.0272 56.9726 75.2297 53.6856 69.3913 52.4558C66.4407 51.8343 64.248 51.7388 62.7691 51.8066C62.03 51.8405 61.4705 51.9152 61.0851 51.9848C60.8925 52.0196 60.7435 52.0531 60.6376 52.0796C60.5846 52.0928 60.5425 52.1043 60.5109 52.1132C60.4952 52.1177 60.4821 52.1216 60.4717 52.1247L60.4581 52.1289L60.4527 52.1306L60.4505 52.1313C60.4494 52.1316 60.4484 52.132 60.7532 53.0844L60.4484 52.132L59.9968 52.2765L59.8229 52.7176C53.108 69.7518 56.7741 82.5986 58.3549 86.749C50.2555 95.8178 45.3248 107.32 45.3248 121.316C45.3248 146.058 52.8746 161.375 64.1782 170.889C74.8892 179.903 88.8303 183.583 102.455 185.318M95.1134 220.702L102.455 185.318M60.1362 190.555C65.6766 200.046 72.8676 203.344 79.5226 203.939C85.9456 204.513 91.9562 202.572 95.6062 200.998C96.6807 193.949 99.3187 188.739 102.455 185.318M60.1362 190.555L102.455 185.318M83.2592 204.606C83.2602 204.606 83.2611 204.606 83.2621 204.606L83.2687 205.008C83.8367 204.98 84.398 204.937 84.951 204.88L83.2592 204.606ZM83.2592 204.606C82.5725 204.618 81.9143 204.767 81.3451 205.037M83.2592 204.606L81.3451 205.037M81.3451 205.037C79.5526 205.004 77.7105 204.798 75.8599 204.356C75.8062 204.277 75.7493 204.2 75.6899 204.126C75.1685 203.477 74.3907 202.973 73.5011 202.703L81.3451 205.037ZM56.2806 191.816L56.2775 191.818C56.2237 191.855 56.112 191.974 56.1108 192.299C56.1095 192.621 56.228 193.049 56.5182 193.472C56.816 193.899 57.1833 194.173 57.493 194.294C57.8078 194.416 57.9493 194.35 57.9851 194.325L56.2806 191.816ZM56.2806 191.816C56.3313 191.781 56.4794 191.719 56.7864 191.835M56.2806 191.816L56.7864 191.835M56.7864 191.835C57.0889 191.95 57.4509 192.215 57.7534 192.636M56.7864 191.835L57.7534 192.636M57.7534 192.636C58.0429 193.069 58.1609 193.502 58.1596 193.827C58.1581 194.156 58.0464 194.283 57.9858 194.325L57.7534 192.636ZM52.2618 185.431C52.5133 185.488 52.8413 185.66 53.1437 185.981C53.4409 186.302 53.584 186.639 53.618 186.888C53.6522 187.138 53.5755 187.208 53.5691 187.214L53.5629 187.219L53.5569 187.225C53.5565 187.225 53.5432 187.239 53.4936 187.249C53.44 187.259 53.3495 187.263 53.2237 187.234C52.9677 187.177 52.6442 187.005 52.3646 186.696L52.3586 186.689L52.3525 186.683C52.0589 186.37 51.9152 186.034 51.8802 185.781C51.849 185.555 51.9053 185.467 51.9233 185.445C51.9479 185.428 52.0397 185.381 52.2618 185.431ZM81.5812 206.04C82.0445 205.778 82.6323 205.617 83.2787 205.606C83.8418 205.595 84.3672 205.704 84.8057 205.899C84.3055 205.947 83.7988 205.984 83.2865 206.008C83.2861 206.008 83.2858 206.008 83.2854 206.008C82.7235 206.035 82.1551 206.046 81.5812 206.04ZM46.9816 181.803C47.0128 181.856 47.0262 181.891 47.0316 181.912C47.0114 181.924 46.9717 181.941 46.9008 181.954C46.7274 181.985 46.4624 181.964 46.1788 181.828L46.1679 181.823L46.1569 181.818C45.856 181.683 45.6606 181.491 45.5692 181.338C45.5343 181.28 45.5206 181.241 45.5156 181.218C45.5353 181.208 45.5718 181.194 45.6343 181.182C45.8059 181.151 46.0768 181.172 46.3742 181.313L46.3835 181.317L46.3929 181.322C46.6946 181.457 46.891 181.651 46.9816 181.803ZM47.0346 181.937C47.0341 181.937 47.0337 181.934 47.0346 181.928C47.0354 181.934 47.035 181.937 47.0346 181.937ZM47.0493 181.899C47.0494 181.9 47.0479 181.901 47.0444 181.904C47.0474 181.901 47.0492 181.899 47.0493 181.899ZM45.5132 181.195C45.5136 181.194 45.5141 181.197 45.513 181.203C45.5126 181.198 45.5129 181.195 45.5132 181.195ZM45.496 181.231C45.4968 181.23 45.4986 181.229 45.502 181.226C45.4996 181.229 45.4977 181.231 45.4967 181.232C45.4961 181.232 45.4958 181.232 45.4957 181.232C45.4956 181.232 45.4958 181.232 45.496 181.231ZM65.1464 202.772L65.1332 202.785L65.1206 202.799C65.0575 202.869 64.8834 202.978 64.5078 202.923C64.139 202.869 63.6792 202.661 63.2661 202.262L63.258 202.254L63.2497 202.246C62.823 201.853 62.5824 201.405 62.5013 201.035C62.4192 200.661 62.511 200.465 62.5838 200.384C62.6505 200.313 62.8294 200.206 63.2098 200.262C63.586 200.317 64.0525 200.528 64.471 200.926L64.4797 200.934C64.9056 201.329 65.15 201.781 65.2309 202.149C65.3124 202.521 65.2172 202.7 65.1464 202.772ZM72.9104 204.614L72.9192 204.617C73.4736 204.784 73.892 205.081 74.1309 205.378C74.3677 205.673 74.3746 205.884 74.3452 205.992C74.3125 206.09 74.1921 206.264 73.8254 206.381C73.459 206.499 72.9447 206.518 72.3908 206.356C71.8385 206.188 71.4203 205.89 71.1799 205.59C70.9386 205.289 70.9323 205.074 70.9608 204.969C70.9921 204.871 71.1114 204.694 71.4774 204.576C71.8416 204.458 72.3555 204.441 72.9104 204.614ZM85.0469 207.474V207.491L85.0475 207.508C85.0508 207.605 85.0017 207.802 84.6912 208.024C84.3846 208.244 83.9018 208.416 83.3191 208.424L83.3095 208.424C82.7279 208.437 82.2438 208.279 81.9307 208.067C81.6192 207.857 81.5513 207.658 81.5466 207.556C81.5497 207.427 81.623 207.222 81.922 207.007C82.227 206.788 82.7057 206.616 83.2953 206.606L83.2982 206.606C83.8775 206.595 84.3618 206.753 84.6733 206.964C84.9897 207.178 85.0469 207.376 85.0469 207.474ZM95.618 207.247C95.6347 207.349 95.6093 207.556 95.3385 207.826C95.0686 208.094 94.6172 208.346 94.033 208.456C93.472 208.557 92.9678 208.48 92.6195 208.321C92.2677 208.16 92.1692 207.972 92.1495 207.876C92.1309 207.758 92.1638 207.543 92.434 207.274C92.7049 207.004 93.1525 206.755 93.7184 206.65C94.302 206.55 94.8081 206.629 95.1506 206.785C95.4922 206.942 95.5951 207.129 95.618 207.247Z" fill="#161614" stroke="white" stroke-width="2"/>
</svg>
